<svg width="35" height="35" viewBox="0 0 35 35" fill="none" xmlns="http://www.w3.org/2000/svg">
<g clip-path="url(#clip0_132_440)">
<path fill-rule="evenodd" clip-rule="evenodd" d="M9.55618 2.3414C10.3679 1.93557 11.3363 1.45833 13.125 1.45833C14.9136 1.45833 15.8821 1.93553 16.6938 2.34135L16.717 2.35298C17.3523 2.67066 17.844 2.91654 18.9583 2.91657C20.7624 2.91664 21.831 2.24395 22.1872 1.97622C22.7418 1.55943 23.3971 1.59457 23.8494 1.80381C24.3076 2.01575 24.7917 2.52144 24.7917 3.26883V18.9583H29.1667C31.582 18.9583 33.5417 20.9147 33.5417 23.3319V27.7083C33.5417 29.0573 33.2003 30.1659 32.6131 31.0466C32.0321 31.9181 31.2678 32.4809 30.548 32.8408C29.8339 33.1979 29.1374 33.3691 28.6316 33.4534C28.328 33.504 28.0169 33.5422 27.7083 33.5417H7.29167C5.94274 33.5417 4.83408 33.2003 3.95343 32.6131C3.08191 32.0321 2.51911 31.2678 2.15917 30.548C1.80209 29.8339 1.63081 29.1374 1.54653 28.6317C1.50382 28.3754 1.4819 28.1587 1.47058 28.0003C1.46116 27.8683 1.45838 27.7901 1.45833 27.7083V3.2688C1.45833 2.52144 1.94227 2.01575 2.4005 1.80381C2.85291 1.59456 3.50818 1.55941 4.06276 1.97617C4.41903 2.24391 5.48755 2.91657 7.29167 2.91657C8.40605 2.91657 8.8977 2.6707 9.53295 2.35302L9.55618 2.3414ZM4.37984 27.7083L4.375 5.37208C5.16276 5.63758 6.13568 5.83323 7.29167 5.83323C9.0804 5.83323 10.0488 5.35601 10.8605 4.95018L10.8837 4.93856C11.519 4.62088 12.0106 4.375 13.125 4.375C14.2394 4.375 14.7311 4.62086 15.3663 4.93854L15.3895 4.95015C16.2012 5.35596 17.1695 5.83319 18.9583 5.83323C20.1144 5.83328 21.0872 5.63764 21.875 5.37211V27.7083C21.875 28.8502 22.1197 29.82 22.5509 30.625H7.29167C6.4531 30.625 5.92113 30.4195 5.57131 30.1863C5.21236 29.947 4.95485 29.6176 4.76792 29.2437C4.57812 28.8641 4.47596 28.4668 4.42352 28.1522C4.39887 28.0042 4.38393 27.8577 4.37984 27.7083ZM28.1522 30.5764C28.4668 30.5241 28.8641 30.4219 29.2437 30.2321C29.6176 30.0452 29.947 29.7876 30.1863 29.4287C30.4195 29.0789 30.625 28.5469 30.625 27.7083V23.3319C30.625 22.5275 29.973 21.875 29.1667 21.875H24.7917V27.7083C24.7917 28.5469 24.9971 29.0789 25.2303 29.4287C25.4696 29.7876 25.7991 30.0452 26.173 30.2321C26.5526 30.4219 26.9499 30.5241 27.2646 30.5764C27.4184 30.6021 27.5434 30.6144 27.6242 30.6202C27.8001 30.6327 27.9791 30.6053 28.1522 30.5764Z" fill="#0F0F0F"/>
<path d="M7.29167 11.6667C7.29167 10.8613 7.94459 10.2083 8.75 10.2083H17.5C18.3054 10.2083 18.9583 10.8613 18.9583 11.6667C18.9583 12.4721 18.3054 13.125 17.5 13.125H8.75C7.94459 13.125 7.29167 12.4721 7.29167 11.6667Z" fill="#0F0F0F"/>
<path d="M7.29167 17.5C7.29167 16.6946 7.94459 16.0417 8.75 16.0417H17.5C18.3054 16.0417 18.9583 16.6946 18.9583 17.5C18.9583 18.3054 18.3054 18.9583 17.5 18.9583H8.75C7.94459 18.9583 7.29167 18.3054 7.29167 17.5Z" fill="#0F0F0F"/>
<path d="M7.29167 23.3333C7.29167 22.5279 7.94459 21.875 8.75 21.875H17.5C18.3054 21.875 18.9583 22.5279 18.9583 23.3333C18.9583 24.1388 18.3054 24.7917 17.5 24.7917H8.75C7.94459 24.7917 7.29167 24.1388 7.29167 23.3333Z" fill="#0F0F0F"/>
</g>
<defs>
<clipPath id="clip0_132_440">
<rect width="35" height="35" fill="white"/>
</clipPath>
</defs>
</svg>
